<?xml version="1.0" encoding="us-ascii" standalone="no"?><svg xmlns="http://www.w3.org/2000/svg" xmlns:xlink="http://www.w3.org/1999/xlink" contentStyleType="text/css" height="313px" preserveAspectRatio="none" style="width:1324px;height:313px;background:#FFFFFF;" version="1.1" viewBox="0 0 1324 313" width="1324px" zoomAndPan="magnify"><defs/><g><!--cluster ApplicationCore--><g id="cluster_ApplicationCore"><rect fill="none" height="236" rx="2.5" ry="2.5" style="stroke:#181818;stroke-width:1.0;" width="465" x="853" y="71.89"/><path d="M975,71.89 L975,82.4994 L965,92.4994 L853,92.4994 " fill="none" style="stroke:#181818;stroke-width:1.0;"/><text fill="#000000" font-family="sans-serif" font-size="14" font-weight="bold" lengthAdjust="spacing" textLength="112" x="856" y="87.4232">ApplicationCore</text></g><!--cluster ApplicationService--><g id="cluster_ApplicationService"><rect fill="none" height="168" rx="2.5" ry="2.5" style="stroke:#181818;stroke-width:1.0;" width="417" x="877" y="115.89"/><path d="M1019,115.89 L1019,126.4994 L1009,136.4994 L877,136.4994 " fill="none" style="stroke:#181818;stroke-width:1.0;"/><text fill="#000000" font-family="sans-serif" font-size="14" font-weight="bold" lengthAdjust="spacing" textLength="132" x="880" y="131.4232">ApplicationService</text></g><!--cluster ImportServices--><g id="cluster_ImportServices"><rect fill="none" height="100" rx="2.5" ry="2.5" style="stroke:#181818;stroke-width:1.0;" width="369" x="901" y="159.89"/><text fill="#000000" font-family="sans-serif" font-size="14" font-weight="bold" lengthAdjust="spacing" textLength="107" x="1032" y="176.4232">ImportServices</text></g><!--cluster DrivingInfrastructure--><g id="cluster_DrivingInfrastructure"><rect fill="none" height="168" rx="2.5" ry="2.5" style="stroke:#181818;stroke-width:1.0;" width="252" x="577" y="115.89"/><path d="M735,115.89 L735,126.4994 L725,136.4994 L577,136.4994 " fill="none" style="stroke:#181818;stroke-width:1.0;"/><text fill="#000000" font-family="sans-serif" font-size="14" font-weight="bold" lengthAdjust="spacing" textLength="148" x="580" y="131.4232">DrivingInfrastructure</text></g><!--cluster CLI--><g id="cluster_CLI"><path d="M603.5,159.89 L626.5,159.89 A3.75,3.75 0 0 1 629,162.39 L636,183.4994 L802.5,183.4994 A2.5,2.5 0 0 1 805,185.9994 L805,257.39 A2.5,2.5 0 0 1 802.5,259.89 L603.5,259.89 A2.5,2.5 0 0 1 601,257.39 L601,162.39 A2.5,2.5 0 0 1 603.5,159.89 " fill="none" style="stroke:#000000;stroke-width:1.5;"/><line style="stroke:#000000;stroke-width:1.5;" x1="601" x2="636" y1="183.4994" y2="183.4994"/><text fill="#000000" font-family="sans-serif" font-size="14" font-weight="bold" lengthAdjust="spacing" textLength="22" x="605" y="176.4232">CLI</text></g><!--cluster DrivenInfrastructure--><g id="cluster_DrivenInfrastructure"><rect fill="none" height="168" rx="2.5" ry="2.5" style="stroke:#181818;stroke-width:1.0;" width="546" x="7" y="115.89"/><path d="M161,115.89 L161,126.4994 L151,136.4994 L7,136.4994 " fill="none" style="stroke:#181818;stroke-width:1.0;"/><text fill="#000000" font-family="sans-serif" font-size="14" font-weight="bold" lengthAdjust="spacing" textLength="144" x="10" y="131.4232">DrivenInfrastructure</text></g><!--cluster DataSource--><g id="cluster_DataSource"><rect fill="none" height="100" rx="2.5" ry="2.5" style="stroke:#181818;stroke-width:1.0;" width="375" x="154" y="159.89"/><path d="M245,159.89 L245,170.4994 L235,180.4994 L154,180.4994 " fill="none" style="stroke:#181818;stroke-width:1.0;"/><text fill="#000000" font-family="sans-serif" font-size="14" font-weight="bold" lengthAdjust="spacing" textLength="81" x="157" y="175.4232">DataSource</text></g><!--class ImportDataProvider--><g id="elem_ImportDataProvider"><rect codeLine="6" fill="#F1F1F1" height="48" id="ImportDataProvider" rx="2.5" ry="2.5" style="stroke:#181818;stroke-width:0.5;" width="154" x="1100" y="195.89"/><ellipse cx="1115" cy="211.89" fill="#B4A7E5" rx="11" ry="11" style="stroke:#181818;stroke-width:1.0;"/><path d="M1115.9531,208.5306 L1115.9531,215.1869 L1117.6719,215.1869 Q1118.2813,215.1869 1118.5469,215.4213 Q1118.8125,215.6556 1118.8125,216.0463 Q1118.8125,216.4213 1118.5469,216.6556 Q1118.2813,216.89 1117.6719,216.89 L1112.5313,216.89 Q1111.9219,216.89 1111.6563,216.6556 Q1111.3906,216.4213 1111.3906,216.0306 Q1111.3906,215.6556 1111.6563,215.4213 Q1111.9219,215.1869 1112.5313,215.1869 L1114.25,215.1869 L1114.25,208.5306 L1112.5313,208.5306 Q1111.9219,208.5306 1111.6563,208.2963 Q1111.3906,208.0619 1111.3906,207.6713 Q1111.3906,207.2963 1111.6563,207.0619 Q1111.9219,206.8275 1112.5313,206.8275 L1117.6719,206.8275 Q1118.2813,206.8275 1118.5469,207.0619 Q1118.8125,207.2963 1118.8125,207.6713 Q1118.8125,208.0619 1118.5469,208.2963 Q1118.2813,208.5306 1117.6719,208.5306 L1115.9531,208.5306 Z " fill="#000000"/><text fill="#000000" font-family="sans-serif" font-size="14" font-style="italic" lengthAdjust="spacing" textLength="122" x="1129" y="217.6185">ImportDataProvider</text><line style="stroke:#181818;stroke-width:0.5;" x1="1101" x2="1253" y1="227.89" y2="227.89"/><line style="stroke:#181818;stroke-width:0.5;" x1="1101" x2="1253" y1="235.89" y2="235.89"/></g><!--class ImportDataService--><g id="elem_ImportDataService"><rect codeLine="7" fill="#F1F1F1" height="48" id="ImportDataService" rx="2.5" ry="2.5" style="stroke:#181818;stroke-width:0.5;" width="148" x="917" y="195.89"/><ellipse cx="932" cy="211.89" fill="#ADD1B2" rx="11" ry="11" style="stroke:#181818;stroke-width:1.0;"/><path d="M934.7656,207.765 Q934.9219,207.5463 935.1094,207.4369 Q935.2969,207.3275 935.5156,207.3275 Q935.8906,207.3275 936.125,207.5931 Q936.3594,207.8431 936.3594,208.4525 L936.3594,209.9056 Q936.3594,210.515 936.125,210.7806 Q935.8906,211.0463 935.5156,211.0463 Q935.1719,211.0463 934.9688,210.8431 Q934.7656,210.6556 934.6563,210.14 Q934.6094,209.7806 934.4219,209.5931 Q934.0938,209.2181 933.4844,208.9994 Q932.875,208.7806 932.25,208.7806 Q931.4844,208.7806 930.8438,209.1088 Q930.2188,209.4369 929.7188,210.1869 Q929.2344,210.9369 929.2344,211.9681 L929.2344,213.0619 Q929.2344,214.2963 930.125,215.1244 Q931.0156,215.9369 932.6094,215.9369 Q933.5469,215.9369 934.2031,215.6869 Q934.5938,215.5306 935.0156,215.0931 Q935.2813,214.8275 935.4219,214.7494 Q935.5781,214.6713 935.7813,214.6713 Q936.1094,214.6713 936.3594,214.9369 Q936.625,215.1869 936.625,215.5306 Q936.625,215.8744 936.2813,216.2806 Q935.7813,216.8588 934.9844,217.1869 Q933.9063,217.64 932.6094,217.64 Q931.0938,217.64 929.8906,217.015 Q928.9063,216.515 928.2188,215.4525 Q927.5313,214.3744 927.5313,213.0931 L927.5313,211.9369 Q927.5313,210.6088 928.1406,209.4681 Q928.7656,208.3119 929.8594,207.7025 Q930.9531,207.0775 932.1875,207.0775 Q932.9219,207.0775 933.5625,207.2494 Q934.2188,207.4056 934.7656,207.765 Z " fill="#000000"/><text fill="#000000" font-family="sans-serif" font-size="14" lengthAdjust="spacing" textLength="116" x="946" y="217.6185">ImportDataService</text><line style="stroke:#181818;stroke-width:0.5;" x1="918" x2="1064" y1="227.89" y2="227.89"/><line style="stroke:#181818;stroke-width:0.5;" x1="918" x2="1064" y1="235.89" y2="235.89"/></g><!--class ImportDataCommands--><g id="elem_ImportDataCommands"><rect codeLine="14" fill="#F1F1F1" height="48" id="ImportDataCommands" rx="2.5" ry="2.5" style="stroke:#181818;stroke-width:0.5;" width="172" x="617" y="195.89"/><ellipse cx="632" cy="211.89" fill="#ADD1B2" rx="11" ry="11" style="stroke:#181818;stroke-width:1.0;"/><path d="M634.7656,207.765 Q634.9219,207.5463 635.1094,207.4369 Q635.2969,207.3275 635.5156,207.3275 Q635.8906,207.3275 636.125,207.5931 Q636.3594,207.8431 636.3594,208.4525 L636.3594,209.9056 Q636.3594,210.515 636.125,210.7806 Q635.8906,211.0463 635.5156,211.0463 Q635.1719,211.0463 634.9688,210.8431 Q634.7656,210.6556 634.6563,210.14 Q634.6094,209.7806 634.4219,209.5931 Q634.0938,209.2181 633.4844,208.9994 Q632.875,208.7806 632.25,208.7806 Q631.4844,208.7806 630.8438,209.1088 Q630.2188,209.4369 629.7188,210.1869 Q629.2344,210.9369 629.2344,211.9681 L629.2344,213.0619 Q629.2344,214.2963 630.125,215.1244 Q631.0156,215.9369 632.6094,215.9369 Q633.5469,215.9369 634.2031,215.6869 Q634.5938,215.5306 635.0156,215.0931 Q635.2813,214.8275 635.4219,214.7494 Q635.5781,214.6713 635.7813,214.6713 Q636.1094,214.6713 636.3594,214.9369 Q636.625,215.1869 636.625,215.5306 Q636.625,215.8744 636.2813,216.2806 Q635.7813,216.8588 634.9844,217.1869 Q633.9063,217.64 632.6094,217.64 Q631.0938,217.64 629.8906,217.015 Q628.9063,216.515 628.2188,215.4525 Q627.5313,214.3744 627.5313,213.0931 L627.5313,211.9369 Q627.5313,210.6088 628.1406,209.4681 Q628.7656,208.3119 629.8594,207.7025 Q630.9531,207.0775 632.1875,207.0775 Q632.9219,207.0775 633.5625,207.2494 Q634.2188,207.4056 634.7656,207.765 Z " fill="#000000"/><text fill="#000000" font-family="sans-serif" font-size="14" lengthAdjust="spacing" textLength="140" x="646" y="217.6185">ImportDataCommands</text><line style="stroke:#181818;stroke-width:0.5;" x1="618" x2="788" y1="227.89" y2="227.89"/><line style="stroke:#181818;stroke-width:0.5;" x1="618" x2="788" y1="235.89" y2="235.89"/></g><path d="M25.5,192.39 L118.5,192.39 A3.75,3.75 0 0 1 121,194.89 L128,215.9994 L132.5,215.9994 A2.5,2.5 0 0 1 135,218.4994 L135,245.1088 A2.5,2.5 0 0 1 132.5,247.6088 L25.5,247.6088 A2.5,2.5 0 0 1 23,245.1088 L23,194.89 A2.5,2.5 0 0 1 25.5,192.39 " fill="#F1F1F1" style="stroke:#181818;stroke-width:0.5;"/><line style="stroke:#181818;stroke-width:0.5;" x1="23" x2="128" y1="215.9994" y2="215.9994"/><text fill="#000000" font-family="sans-serif" font-size="14" font-weight="bold" lengthAdjust="spacing" textLength="92" x="27" y="208.9232">DataProvider</text><!--entity FMP--><g id="elem_FMP"><rect fill="#F1F1F1" height="47.6094" rx="2.5" ry="2.5" style="stroke:#181818;stroke-width:0.5;" width="69" x="332.5" y="195.89"/><path d="M355.5,195.89 L355.5,200.89 L348.5,207.89 L332.5,207.89 " fill="none" style="stroke:#181818;stroke-width:0.5;"/><text fill="#000000" font-family="sans-serif" font-size="14" lengthAdjust="spacing" textLength="29" x="347.5" y="230.4232">FMP</text></g><!--entity Alphavantage--><g id="elem_Alphavantage"><rect fill="#F1F1F1" height="47.6094" rx="2.5" ry="2.5" style="stroke:#181818;stroke-width:0.5;" width="127" x="170.5" y="195.89"/><path d="M212.8333,195.89 L212.8333,200.89 L205.8333,207.89 L170.5,207.89 " fill="none" style="stroke:#181818;stroke-width:0.5;"/><text fill="#000000" font-family="sans-serif" font-size="14" lengthAdjust="spacing" textLength="87" x="185.5" y="230.4232">Alphavantage</text></g><!--entity Finviz--><g id="elem_Finviz"><rect fill="#F1F1F1" height="47.6094" rx="2.5" ry="2.5" style="stroke:#181818;stroke-width:0.5;" width="76" x="437" y="195.89"/><path d="M462.3333,195.89 L462.3333,200.89 L455.3333,207.89 L437,207.89 " fill="none" style="stroke:#181818;stroke-width:0.5;"/><text fill="#000000" font-family="sans-serif" font-size="14" lengthAdjust="spacing" textLength="36" x="452" y="230.4232">Finviz</text></g><!--link DataProvider to Finviz--><g id="link_DataProvider_Finviz"><path codeLine="37" d="M83.11,192.22 C91.22,149.01 113.8,67.03 171.5,33.89 C215.82,8.43 357.18,8.43 401.5,33.89 C458.71,66.75 471.0864,147.3029 473.8764,189.7429 " fill="none" id="DataProvider-to-Finviz" style="stroke:#181818;stroke-width:1.0;"/><polygon fill="#181818" points="474.27,195.73,477.671,186.487,473.942,190.7408,469.6882,187.0118,474.27,195.73" style="stroke:#181818;stroke-width:1.0;"/></g><!--link DataProvider to FMP--><g id="link_DataProvider_FMP"><path codeLine="38" d="M83.11,192.22 C91.22,149.01 113.8,67.03 171.5,33.89 C220.06,6 248.94,6 297.5,33.89 C354.3,66.51 364.819,147.1753 366.599,189.6853 " fill="none" id="DataProvider-to-FMP" style="stroke:#181818;stroke-width:1.0;"/><polygon fill="#181818" points="366.85,195.68,370.47,186.5205,366.6408,190.6844,362.477,186.8552,366.85,195.68" style="stroke:#181818;stroke-width:1.0;"/></g><!--link ImportDataCommands to ImportDataService--><g id="link_ImportDataCommands_ImportDataService"><path codeLine="41" d="M789.06,219.89 C831.66,219.89 868.25,219.89 910.85,219.89 " fill="none" id="ImportDataCommands-to-ImportDataService" style="stroke:#181818;stroke-width:1.0;"/><polygon fill="#181818" points="916.85,219.89,907.85,215.89,911.85,219.89,907.85,223.89,916.85,219.89" style="stroke:#181818;stroke-width:1.0;"/></g><!--link ImportDataService to ImportDataProvider--><g id="link_ImportDataService_ImportDataProvider"><path codeLine="42" d="M1065.11,219.89 C1076.62,219.89 1082.13,219.89 1093.64,219.89 " fill="none" id="ImportDataService-to-ImportDataProvider" style="stroke:#181818;stroke-width:1.0;"/><polygon fill="#181818" points="1099.64,219.89,1090.64,215.89,1094.64,219.89,1090.64,223.89,1099.64,219.89" style="stroke:#181818;stroke-width:1.0;"/></g><!--SRC=[ZP9RQiCm44N_jGfle3i8Xk9GC2HWcWM4GL6SeNenafNGahrN1iknhFGn7qRodClL7GcaDDUZmXlgdZ4B_0DwKRrQAv63HwCRGwBQRCu4IjHrzSMgM4-uWw20l4HJ9Kchh24_qIxYxu9xqBqi9MEXzeBEm9Dm2nuwCW5FWWgOIt1k0Kuk6NTd-Uh-IBqb374ChOu9dAU1- -6NxCskNPntRTqOfK2VtEInSX7wdoRBkB6LJhn63cQW7sQViBTzb_LPEP3vLgMzG03jnysicR5CM_gW3lZvb-pnpHA-r9F-UMlVZOCiXpmsoril_kJO_8fYVGC0]--></g></svg>